# xmcd CD database file
#
# Track frame offsets:
#	150
#	22904
#	40878
#	65287
#	80855
#	98570
#	116890
#	136396
#	155118
#	182227
#	199064
#	218023
#	248929
#	270325
#	284281
#	298837
#	314123
#	325950
#
# Disc length: 4554 seconds
#
# Revision: 0
# Processed by: cddbd v1.4PL0 Copyright (c) Steve Scherf et al.
# Submitted via: Feurio! 1.66 - http://www.feurio.com
#
DISCID=1711c812
DTITLE=Scooter - alle
DYEAR=1900
DGENRE=
TTITLE0=01 - Posse (I Need You On The Floor)
TTITLE1=02 - We Bring The Noise
TTITLE2=03 - R U Happy
TTITLE3=04 - Aiii Shot The DJ
TTITLE4=05 - Faster Harder Scooter
TTITLE5=06 - Im Raving
TTITLE6=07 - Call me Manana
TTITLE7=08 - Fuck The Millenium
TTITLE8=09 - Am Fenster
TTITLE9=10 - Eyes Without A Face
TTITLE10=11 - No Fate
TTITLE11=12 - How Much Is The Fish
TTITLE12=13 - The Logical Song
TTITLE13=14 - The Age Of Love
TTITLE14=15 - Fire
TTITLE15=16 - Endless Summer
TTITLE16=17 - Hyper Hyper
TTITLE17=Scooter - Encore (Live And Direct)
EXTD=
EXTT0=
EXTT1=
EXTT2=
EXTT3=
EXTT4=
EXTT5=
EXTT6=
EXTT7=
EXTT8=
EXTT9=
EXTT10=
EXTT11=
EXTT12=
EXTT13=
EXTT14=
EXTT15=
EXTT16=
EXTT17=
PLAYORDER=
